HIERARCHY
ROOT Hips
{
	OFFSET 0.000000 0.000000 0.000000
	CHANNELS 6 Xposition Yposition Zposition Xrotation Yrotation Zrotation
	JOINT LeftUpLeg_virtual
	{
		OFFSET 0.000000 0.000000 0.000000
		CHANNELS 3 Xrotation Yrotation Zrotation
		JOINT LeftUpLeg
		{
			OFFSET 15.427100 -6.655098 0.678600
			CHANNELS 3 Xrotation Yrotation Zrotation
			JOINT LeftLeg
			{
				OFFSET 4.081073 -39.591068 13.024000
				CHANNELS 3 Xrotation Yrotation Zrotation
				JOINT LeftFoot
				{
					OFFSET -4.081074 -37.707932 -15.979700
					CHANNELS 3 Xrotation Yrotation Zrotation
					JOINT LeftToeBase
					{
						OFFSET 5.346399 -15.068900 20.645000
						CHANNELS 3 Xrotation Yrotation Zrotation
						JOINT LeftToe_End
						{
							OFFSET 2.754700 0.931300 11.300900
							CHANNELS 3 Xrotation Yrotation Zrotation
							End Site
							{
								OFFSET 0 0 0
							}
						}
					}
				}
			}
		}
	}
	JOINT RightUpLeg_virtual
	{
		OFFSET 0.000000 0.000000 0.000000
		CHANNELS 3 Xrotation Yrotation Zrotation
		JOINT RightUpLeg
		{
			OFFSET -15.569500 -6.655098 0.678600
			CHANNELS 3 Xrotation Yrotation Zrotation
			JOINT RightLeg
			{
				OFFSET -4.081825 -39.591045 13.023800
				CHANNELS 3 Xrotation Yrotation Zrotation
				JOINT RightFoot
				{
					OFFSET 4.081824 -37.707954 -15.979600
					CHANNELS 3 Xrotation Yrotation Zrotation
					JOINT RightToeBase
					{
						OFFSET -5.346400 -15.068900 20.645000
						CHANNELS 3 Xrotation Yrotation Zrotation
						JOINT RightToe_End
						{
							OFFSET -2.754700 0.931300 11.300900
							CHANNELS 3 Xrotation Yrotation Zrotation
							End Site
							{
								OFFSET 0 0 0
							}
						}
					}
				}
			}
		}
	}
	JOINT Spine_virtual
	{
		OFFSET 0.000000 0.000000 0.000000
		CHANNELS 3 Xrotation Yrotation Zrotation
		JOINT Spine
		{
			OFFSET -0.279200 12.230698 -2.892100
			CHANNELS 3 Xrotation Yrotation Zrotation
			JOINT Spine1
			{
				OFFSET -0.232667 10.192268 -1.242267
				CHANNELS 3 Xrotation Yrotation Zrotation
				JOINT Spine1_split
				{
					OFFSET -0.232667 10.192268 -1.242267
					CHANNELS 3 Xrotation Yrotation Zrotation
					JOINT Spine2
					{
						OFFSET -0.232667 10.192268 -1.242267
						CHANNELS 3 Xrotation Yrotation Zrotation
						JOINT Neck_virtual
						{
							OFFSET 0.000000 0.000000 0.000000
							CHANNELS 3 Xrotation Yrotation Zrotation
							JOINT Neck
							{
								OFFSET -0.418800 17.814194 8.416900
								CHANNELS 3 Xrotation Yrotation Zrotation
								JOINT Head
								{
									OFFSET 0.000000 7.031097 3.806800
									CHANNELS 3 Xrotation Yrotation Zrotation
									JOINT HeadTop_End
									{
										OFFSET 0.000000 24.646606 12.978600
										CHANNELS 3 Xrotation Yrotation Zrotation
										End Site
										{
											OFFSET 0 0 0
										}
									}
								}
							}
						}
						JOINT LeftShoulder_virtual
						{
							OFFSET 0.000000 0.000000 0.000000
							CHANNELS 3 Xrotation Yrotation Zrotation
							JOINT LeftShoulder
							{
								OFFSET 8.476499 7.247704 -3.868750
								CHANNELS 3 Xrotation Yrotation Zrotation
								JOINT LeftShoulder_split
								{
									OFFSET 8.476499 7.247704 -3.868750
									CHANNELS 3 Xrotation Yrotation Zrotation
									JOINT LeftArm
									{
										OFFSET 9.308998 -2.777710 0.208600
										CHANNELS 3 Xrotation Yrotation Zrotation
										JOINT LeftForeArm
										{
											OFFSET 29.972298 0.000000 0.000000
											CHANNELS 3 Xrotation Yrotation Zrotation
											JOINT LeftHand
											{
												OFFSET 26.026505 0.000000 0.000000
												CHANNELS 3 Xrotation Yrotation Zrotation
												End Site
												{
													OFFSET 0 0 0
												}
											}
										}
									}
								}
							}
						}
						JOINT RightShoulder_virtual
						{
							OFFSET 0.000000 0.000000 0.000000
							CHANNELS 3 Xrotation Yrotation Zrotation
							JOINT RightShoulder
							{
								OFFSET -7.570500 7.247704 -3.868750
								CHANNELS 3 Xrotation Yrotation Zrotation
								JOINT RightShoulder_split
								{
									OFFSET -7.570500 7.247704 -3.868750
									CHANNELS 3 Xrotation Yrotation Zrotation
									JOINT RightArm
									{
										OFFSET -9.308998 -2.777710 0.208500
										CHANNELS 3 Xrotation Yrotation Zrotation
										JOINT RightForeArm
										{
											OFFSET -29.972300 0.000000 0.000000
											CHANNELS 3 Xrotation Yrotation Zrotation
											JOINT RightHand
											{
												OFFSET -26.026505 0.000000 0.000000
												CHANNELS 3 Xrotation Yrotation Zrotation
												End Site
												{
													OFFSET 0 0 0
												}
											}
										}
									}
								}
							}
						}
					}
				}
			}
		}
	}
}
MOTION
Frames: 4
Frame Time: 0.03333333
-36.110146 89.787483 -35.639244 0.000000 0.000000 0.000000 4.515291 -2.489212 -0.178913 -42.482926 2.493341 10.860950 36.524512 10.979199 1.676467 18.439658 8.171303 -6.155673 -3.742412 -0.077839 -0.112671 0.000000 0.000000 0.000000 4.881755 -2.165834 -0.146944 0.498738 -12.798572 -6.543810 21.537577 -6.165293 -1.766998 -12.665212 -6.130328 19.556700 -14.565997 0.671362 -0.110508 0.000000 0.000000 0.000000 4.062258 -1.221369 -1.087541 2.516830 2.076118 -3.980110 2.108400 2.367721 -0.835149 0.832709 0.332408 0.169821 0.000000 0.000000 0.000000 2.220445 2.408099 -1.248805 0.976235 0.577261 1.054040 -1.487160 11.137005 3.386485 0.000000 0.000000 0.000000 1.603169 2.348120 -1.437374 0.510397 -2.860055 -11.944047 -1.079013 0.124040 2.005667 -11.446580 23.003392 -36.360471 -0.710440 -63.019048 0.103496 0.000000 0.000000 0.000000 1.846337 2.746842 -0.573525 1.026507 -3.005425 10.051622 2.269579 1.899345 -2.715125 -15.265411 -16.020147 46.793452 0.359447 15.487322 -0.055250 0.000000 0.000000 0.000000 
-34.987812 91.010971 -36.042152 0.000000 0.000000 0.000000 4.768976 -2.939064 -0.025381 -37.438996 0.728638 14.543394 40.312589 10.503561 0.773623 15.895397 11.297786 -4.411229 -1.199936 0.369808 -3.191594 0.000000 0.000000 0.000000 5.453964 -2.118996 -0.128858 -1.446964 -13.557161 -9.620528 21.171027 -4.809704 -0.859200 -9.682908 -3.697511 19.444510 -16.537242 0.944050 -0.979007 0.000000 0.000000 0.000000 4.388478 -1.014595 -0.996003 2.365749 2.834267 -4.045746 1.585635 3.306136 -1.286565 0.634920 -0.013050 0.351901 0.000000 0.000000 0.000000 1.786045 3.291705 -1.589866 0.467443 0.312157 1.784429 -1.956296 9.177044 3.652982 0.000000 0.000000 0.000000 1.160295 3.278441 -1.931864 0.785120 -2.954203 -12.410814 -1.441733 -0.309984 2.153446 2.579171 29.110932 -43.654826 -0.318340 -64.877057 0.265231 0.000000 0.000000 0.000000 1.437522 3.660039 -1.025267 1.010593 -2.850122 9.435596 2.857620 1.633564 -2.684478 -17.777492 -16.142107 44.547682 0.327223 16.768316 -0.353724 0.000000 0.000000 0.000000 
-33.714607 92.139984 -36.412018 0.000000 0.000000 0.000000 5.336504 -3.182822 -0.313781 -31.844483 -0.416128 18.970825 40.349961 10.965116 0.050433 14.290493 15.237146 -1.950555 2.456033 0.734670 -6.730944 0.000000 0.000000 0.000000 6.276293 -1.735411 -0.416487 -1.742458 -13.401821 -12.022249 18.873928 -3.617513 -0.100947 -7.912383 -2.312984 18.715142 -16.949147 1.007683 -1.411674 0.000000 0.000000 0.000000 5.072787 -0.831836 -1.209106 1.978155 3.372977 -3.940258 0.990830 4.087055 -1.573715 0.699116 -0.107488 0.332485 0.000000 0.000000 0.000000 1.164104 4.010825 -1.794948 -0.106255 0.103888 2.311186 -1.942269 7.097624 3.872188 0.000000 0.000000 0.000000 0.606280 4.025706 -2.224403 1.019298 -2.895562 -11.994875 -2.014029 -1.095230 2.037201 14.906493 32.868503 -50.849987 0.175940 -63.742064 0.552974 0.000000 0.000000 0.000000 0.965351 4.406095 -1.328280 1.082948 -2.870696 8.922208 2.986734 1.555276 -2.419953 -19.556758 -16.957679 42.566319 0.162515 17.795486 -0.514289 0.000000 0.000000 0.000000 
-32.287533 92.960030 -36.786293 0.000000 0.000000 0.000000 6.209688 -2.510498 -1.017404 -26.524531 -0.630582 23.713573 37.171809 11.718025 -0.215483 13.458317 18.417349 -0.295444 4.561569 0.959414 -9.594889 0.000000 0.000000 0.000000 7.074878 -0.428428 -1.076395 -0.526740 -12.490685 -13.407150 15.247453 -2.736497 0.391793 -7.047207 -2.035434 18.553082 -16.725135 0.884470 -1.582138 0.000000 0.000000 0.000000 5.991017 0.041417 -1.662099 1.462178 3.649170 -3.684519 0.386492 4.592695 -1.697756 1.027122 -0.037179 0.496822 0.000000 0.000000 0.000000 0.449932 4.462338 -1.863293 -0.659715 -0.084419 2.540228 -1.487308 5.034979 4.058572 0.000000 0.000000 0.000000 0.006390 4.474664 -2.295488 1.208715 -2.756752 -10.879720 -2.773553 -1.615969 1.424735 23.233194 35.195463 -56.197577 0.542974 -60.023661 0.801434 0.000000 0.000000 0.000000 0.483996 4.878890 -1.463096 1.209318 -2.977931 8.486258 2.691512 1.617639 -1.756803 -20.592122 -18.193315 40.606065 -0.058583 18.814945 -0.515358 0.000000 0.000000 0.000000 
